Coordinates
version=1
nRows=12
nColumns=38
inDegrees=yes

Units are S.I. units (second, meters, Newtons, ...)
Angles are in degrees.

endheader
time	pelvis_tilt	pelvis_list	pelvis_rotation	pelvis_tx	pelvis_ty	pelvis_tz	hip_flexion_r	hip_adduction_r	hip_rotation_r	knee_angle_r	ankle_angle_r	subtalar_angle_r	mtp_angle_r	hip_flexion_l	hip_adduction_l	hip_rotation_l	knee_angle_l	ankle_angle_l	subtalar_angle_l	mtp_angle_l	lumbar_extension	lumbar_bending	lumbar_rotation	arm_flex_r	arm_add_r	arm_rot_r	elbow_flex_r	pro_sup_r	wrist_flex_r	wrist_dev_r	arm_flex_l	arm_add_l	arm_rot_l	elbow_flex_l	pro_sup_l	wrist_flex_l	wrist_dev_l
      0.00000000	     11.37198282	     -0.98702526	     -1.53378916	     -0.01475446	      0.91476591	     -0.00745803	    -15.56756917	      1.56635066	     -5.97086800	     -1.65160994	     -0.43364869	      0.00000000	      0.00000000	    -14.30354525	      0.12115111	    -10.75754146	     -4.09012419	     -0.70747419	      0.00000000	      0.00000000	    -20.73322351	     -0.90190481	      3.24650017	      0.04891714	     -2.46490943	    -21.16060545	     32.35383738	    110.84282783	      0.00000000	      0.00000000	      2.81098292	     -2.44790025	    -25.32740414	     30.53306771	    105.84383423	      0.00000000	      0.00000000
      0.01000000	     11.38802732	     -1.02398010	     -1.49167800	     -0.01482845	      0.91480065	     -0.00746000	    -15.56758157	      1.62252709	     -5.98017874	     -1.68757668	     -0.47743118	      0.00000000	      0.00000000	    -14.32117889	      0.06648290	    -10.74506372	     -4.07550502	     -0.71624865	      0.00000000	      0.00000000	    -20.74754157	     -0.86068390	      3.24231736	      0.04689508	     -2.51207507	    -21.01621811	     32.27010211	    110.74845117	      0.00000000	      0.00000000	      2.84780660	     -2.50421084	    -25.17510342	     30.51810238	    105.70537854	      0.00000000	      0.00000000
      0.02000000	     11.39051016	     -1.03737636	     -1.47240457	     -0.01490869	      0.91482389	     -0.00744879	    -15.56089864	      1.64491299	     -5.98915028	     -1.70294966	     -0.50395690	      0.00000000	      0.00000000	    -14.32169357	      0.04453138	    -10.73442635	     -4.06872279	     -0.72085470	      0.00000000	      0.00000000	    -20.74622633	     -0.84797765	      3.25493351	      0.03732862	     -2.54402187	    -20.90799453	     32.24978550	    110.62078253	      0.00000000	      0.00000000	      2.87054708	     -2.55213536	    -25.05045968	     30.56227987	    105.48464279	      0.00000000	      0.00000000
      0.03000000	     11.38386418	     -1.03477252	     -1.46734123	     -0.01498123	      0.91483366	     -0.00742640	    -15.54928850	      1.64513973	     -5.99669578	     -1.70511177	     -0.51821194	      0.00000000	      0.00000000	    -14.31102684	      0.04417350	    -10.72511295	     -4.06648458	     -0.72227160	      0.00000000	      0.00000000	    -20.73396676	     -0.85494138	      3.27995109	      0.02140350	     -2.56640984	    -20.82819381	     32.27498553	    110.46385567	      0.00000000	      0.00000000	      2.88390817	     -2.59264290	    -24.94879217	     30.65027823	    105.18904911	      0.00000000	      0.00000000
      0.04000000	     11.37272957	     -1.02429639	     -1.46799206	     -0.01503613	      0.91482674	     -0.00739933	    -15.53457562	      1.63531039	     -6.00207826	     -1.70172825	     -0.52539733	      0.00000000	      0.00000000	    -14.29525060	      0.05394048	    -10.71662507	     -4.06535491	     -0.72178358	      0.00000000	      0.00000000	    -20.71606226	     -0.87168236	      3.31253249	      0.00097167	     -2.58494261	    -20.76750067	     32.32550634	    110.28433227	      0.00000000	      0.00000000	      2.89308469	     -2.62684640	    -24.86461093	     30.76447902	    104.83153236	      0.00000000	      0.00000000
      0.05000000	     11.36062845	     -1.01244673	     -1.46870854	     -0.01507785	      0.91480663	     -0.00737501	    -15.51822010	      1.62443732	     -6.00525916	     -1.69858235	     -0.52944843	      0.00000000	      0.00000000	    -14.27890775	      0.06526776	    -10.70869117	     -4.06284467	     -0.72063976	      0.00000000	      0.00000000	    -20.69700974	     -0.88989436	      3.34859416	     -0.02161113	     -2.60351790	    -20.71712480	     32.38377711	    110.09082622	      0.00000000	      0.00000000	      2.90247387	     -2.65583535	    -24.79287615	     30.88901081	    104.42964060	      0.00000000	      0.00000000
      0.06000000	     11.34966455	     -1.00305208	     -1.46722691	     -0.01512043	      0.91478488	     -0.00735425	    -15.50121119	      1.61722961	     -6.00681540	     -1.69888086	     -0.53251988	      0.00000000	      0.00000000	    -14.26450099	      0.07351429	    -10.70133764	     -4.05790853	     -0.71974768	      0.00000000	      0.00000000	    -20.67961049	     -0.90445194	      3.38523785	     -0.04387363	     -2.62367872	    -20.67023673	     32.43737878	    109.89287623	      0.00000000	      0.00000000	      2.91502061	     -2.68075539	    -24.72977309	     31.01192426	    104.00377195	      0.00000000	      0.00000000
      0.07000000	     11.34079318	     -0.99728401	     -1.46366315	     -0.01517743	      0.91477371	     -0.00733231	    -15.48414406	      1.61469111	     -6.00762806	     -1.70358271	     -0.53521759	      0.00000000	      0.00000000	    -14.25269367	      0.07739700	    -10.69477335	     -4.05086893	     -0.71953361	      0.00000000	      0.00000000	    -20.66478604	     -0.91385114	      3.42063947	     -0.06375965	     -2.64510764	    -20.62272518	     32.47957546	    109.69986700	      0.00000000	      0.00000000	      2.93205416	     -2.70295882	    -24.67303634	     31.12583076	    103.57511897	      0.00000000	      0.00000000
      0.08000000	     11.33406068	     -0.99442545	     -1.45903915	     -0.01525774	      0.91477922	     -0.00730697	    -15.46731535	      1.61551850	     -6.00858801	     -1.71210481	     -0.53722271	      0.00000000	      0.00000000	    -14.24286060	      0.07775348	    -10.68911890	     -4.04298966	     -0.72000874	      0.00000000	      0.00000000	    -20.65215762	     -0.91938961	      3.45371777	     -0.08005706	     -2.66653527	    -20.57331061	     32.50846620	    109.52010056	      0.00000000	      0.00000000	      2.95352453	     -2.72394639	    -24.62188104	     31.22745644	    103.16372379	      0.00000000	      0.00000000
      0.09000000	     11.32895696	     -0.99287557	     -1.45418655	     -0.01536028	      0.91479805	     -0.00728191	    -15.45070918	      1.61755285	     -6.01046303	     -1.72296641	     -0.53796821	      0.00000000	      0.00000000	    -14.23371869	      0.07632688	    -10.68411764	     -4.03595510	     -0.72097346	      0.00000000	      0.00000000	    -20.64097565	     -0.92350009	      3.48377370	     -0.09251536	     -2.68653951	    -20.52312537	     32.52543662	    109.36012898	      0.00000000	      0.00000000	      2.97850423	     -2.74496359	    -24.57663461	     31.31657285	    102.78689706	      0.00000000	      0.00000000
      0.10000000	     11.32487266	     -0.99105340	     -1.44927465	     -0.01547329	      0.91482014	     -0.00726105	    -15.43411510	      1.61893400	     -6.01390167	     -1.73439573	     -0.53713578	      0.00000000	      0.00000000	    -14.22387502	      0.07486760	    -10.67902310	     -4.03134996	     -0.72222093	      0.00000000	      0.00000000	    -20.63080675	     -0.92816445	      3.51016908	     -0.10163364	     -2.70403596	    -20.47493746	     32.53349651	    109.22438658	      0.00000000	      0.00000000	      3.00575593	     -2.76641793	    -24.53819752	     31.39470227	    102.45812592	      0.00000000	      0.00000000
      0.11000000	     11.32131555	     -0.98797384	     -1.44381833	     -0.01558558	      0.91483700	     -0.00724327	    -15.41753264	      1.61879938	     -6.01944901	     -1.74498659	     -0.53486454	      0.00000000	      0.00000000	    -14.21230055	      0.07452919	    -10.67278149	     -4.03019490	     -0.72361842	      0.00000000	      0.00000000	    -20.62166636	     -0.93413202	      3.53213398	     -0.10825827	     -2.71845061	    -20.43221848	     32.53590176	    109.11510564	      0.00000000	      0.00000000	      3.03417484	     -2.78753818	    -24.50747721	     31.46391122	    102.18649733	      0.00000000	      0.00000000
